<svg width="19" height="19" viewBox="0 0 19 19" fill="none" xmlns="http://www.w3.org/2000/svg">
<path d="M0.849609 3.31492C0.849609 2.73771 1.05232 2.26152 1.45772 1.88635C1.86312 1.51116 2.39016 1.32358 3.0388 1.32358C3.67587 1.32358 4.1913 1.50827 4.58513 1.87769C4.99053 2.25864 5.19324 2.75502 5.19324 3.36687C5.19324 3.92098 4.99633 4.38273 4.6025 4.75215C4.19711 5.1331 3.66428 5.32358 3.00405 5.32358H2.98668C2.3496 5.32358 1.83417 5.1331 1.44034 4.75215C1.04651 4.3712 0.849609 3.89211 0.849609 3.31492ZM1.07548 18.4664V6.89933H4.93262V18.4664H1.07548ZM7.06969 18.4664H10.9268V12.0076C10.9268 11.6035 10.9732 11.2918 11.0658 11.0725C11.228 10.68 11.4741 10.3481 11.8042 10.0768C12.1344 9.80553 12.5484 9.6699 13.0465 9.6699C14.3438 9.6699 14.9925 10.5415 14.9925 12.2846V18.4664H18.8496V11.8344C18.8496 10.1259 18.4442 8.83007 17.6334 7.94695C16.8226 7.06384 15.7512 6.62228 14.4191 6.62228C12.9249 6.62228 11.7608 7.26297 10.9268 8.54435V8.57899H10.9095L10.9268 8.54435V6.89933H7.06969C7.09285 7.26874 7.10444 8.41736 7.10444 10.3452C7.10444 12.2731 7.09285 14.9801 7.06969 18.4664Z" fill="#4A3AFF"/>
</svg>
