<svg width="27" height="23" viewBox="0 0 27 23" fill="none" xmlns="http://www.w3.org/2000/svg">
<g filter="url(#filter0_d_102_137)">
<path d="M16.8767 0.0963813V0.0931396H17.7207L18.029 0.154732C18.2346 0.194718 18.4213 0.24712 18.589 0.311953C18.7567 0.376787 18.9191 0.452431 19.0759 0.538871C19.2328 0.62531 19.3751 0.713387 19.5028 0.803068C19.6294 0.891679 19.743 0.985688 19.8437 1.08509C19.9432 1.18559 20.0985 1.21152 20.3095 1.16289C20.5205 1.11427 20.7477 1.04673 20.9912 0.960289C21.2346 0.87385 21.4754 0.7766 21.7135 0.668538C21.9515 0.560477 22.0965 0.491866 22.1485 0.462691C22.1993 0.432446 22.2264 0.416238 22.2296 0.414066L22.2328 0.409204L22.2491 0.401099L22.2653 0.392995L22.2815 0.384891L22.2978 0.376787L22.301 0.371924L22.3059 0.368683L22.3108 0.365441L22.314 0.360578L22.3302 0.355716L22.3465 0.352474L22.3432 0.376787L22.3383 0.401099L22.3302 0.425412L22.3221 0.449725L22.314 0.465933L22.3059 0.482141L22.2978 0.506454C22.2924 0.522662 22.287 0.544268 22.2815 0.571288C22.2761 0.598307 22.2247 0.706352 22.1273 0.895456C22.03 1.08456 21.9082 1.27635 21.7621 1.47085C21.6161 1.66536 21.4851 1.8123 21.3694 1.91172C21.2525 2.01222 21.1751 2.08245 21.1373 2.12243C21.0994 2.16349 21.0534 2.2013 20.9993 2.23589L20.9181 2.28938L20.9019 2.29748L20.8857 2.30559L20.8824 2.31045L20.8776 2.31369L20.8727 2.31693L20.8694 2.3218L20.8532 2.3299L20.837 2.338L20.8338 2.34287L20.8289 2.34611L20.824 2.34935L20.8208 2.35421L20.8175 2.35908L20.8126 2.36232L20.8078 2.36556L20.8045 2.37042H20.8857L21.3401 2.27317C21.6431 2.20834 21.9326 2.13 22.2085 2.03815L22.6467 1.89227L22.6954 1.87606L22.7198 1.86796L22.736 1.85986L22.7522 1.85175L22.7685 1.84365L22.7847 1.83554L22.8171 1.83068L22.8496 1.82744V1.85986L22.8415 1.8631L22.8334 1.86796L22.8301 1.87282L22.8253 1.87606L22.8204 1.87931L22.8171 1.88417L22.8139 1.88903L22.809 1.89227L22.8042 1.89551L22.8009 1.90038L22.7977 1.90524L22.7928 1.90848L22.7847 1.92469L22.7766 1.9409L22.7717 1.94414C22.7695 1.94738 22.7008 2.03922 22.5656 2.21968C22.4303 2.40122 22.3573 2.49305 22.3465 2.49523C22.3356 2.49847 22.3205 2.51468 22.301 2.54385C22.2826 2.5741 22.1679 2.69459 21.9569 2.9053C21.7459 3.11601 21.5393 3.30347 21.3369 3.46773C21.1335 3.63306 21.0307 3.8362 21.0285 4.07717C21.0253 4.31705 21.0128 4.58828 20.9912 4.89083C20.9695 5.19339 20.929 5.52025 20.8694 5.87144C20.8099 6.22262 20.718 6.61973 20.5935 7.06276C20.4691 7.50578 20.3176 7.93801 20.1391 8.35943C19.9605 8.78085 19.7739 9.15904 19.5791 9.49402C19.3843 9.829 19.2058 10.1126 19.0435 10.345C18.8812 10.5773 18.7162 10.7961 18.5484 11.0014C18.3807 11.2067 18.1687 11.438 17.9122 11.6951C17.6547 11.9512 17.514 12.0917 17.4902 12.1165C17.4653 12.1403 17.3593 12.2289 17.1721 12.3824C16.986 12.5369 16.7858 12.6914 16.5715 12.8459C16.3584 12.9994 16.1625 13.1274 15.984 13.2301C15.8054 13.3327 15.5901 13.4499 15.338 13.5818C15.087 13.7147 14.8153 13.8379 14.5232 13.9513C14.231 14.0648 13.9226 14.1701 13.598 14.2674C13.2734 14.3646 12.9596 14.4403 12.6566 14.4943C12.3537 14.5483 12.0101 14.5943 11.626 14.6321L11.0498 14.6888V14.6969H9.99479V14.6888L9.85682 14.6807C9.76486 14.6753 9.68911 14.6699 9.62959 14.6645C9.57009 14.6591 9.34555 14.6294 8.95601 14.5754C8.56647 14.5213 8.2608 14.4673 8.03897 14.4133C7.81716 14.3592 7.48712 14.2566 7.04889 14.1053C6.61066 13.954 6.23572 13.8011 5.92409 13.6466C5.61355 13.4932 5.41878 13.3959 5.33978 13.3549C5.26187 13.3149 5.17423 13.2652 5.07684 13.2057L4.93076 13.1166L4.92753 13.1117L4.92265 13.1085L4.91778 13.1052L4.91453 13.1004L4.8983 13.0923L4.88207 13.0842L4.87884 13.0793L4.87396 13.0761L4.86909 13.0728L4.86584 13.068L4.86261 13.0631L4.85772 13.0599H4.84961V13.0274L4.86584 13.0307L4.88207 13.0356L4.95511 13.0437C5.0038 13.0491 5.13636 13.0572 5.35277 13.068C5.56919 13.0788 5.79911 13.0788 6.04258 13.068C6.28604 13.0572 6.53492 13.0328 6.78919 12.995C7.04348 12.9572 7.34375 12.8924 7.69001 12.8005C8.03627 12.7087 8.3544 12.5995 8.6444 12.4731C8.9333 12.3456 9.13888 12.2505 9.26117 12.1879C9.38235 12.1263 9.56738 12.0117 9.81625 11.8442L10.1896 11.593L10.1928 11.5881L10.1977 11.5849L10.2026 11.5817L10.2058 11.5768L10.209 11.5719L10.2139 11.5687L10.2188 11.5655L10.222 11.5606L10.2382 11.5557L10.2545 11.5525L10.2577 11.5363L10.2626 11.5201L10.2675 11.5168L10.2707 11.512L10.1409 11.5039C10.0543 11.4985 9.97044 11.493 9.88928 11.4877C9.80813 11.4823 9.68099 11.4579 9.50786 11.4147C9.33474 11.3715 9.14809 11.3067 8.9479 11.2202C8.74772 11.1338 8.55295 11.0311 8.36359 10.9123C8.17424 10.7934 8.03735 10.6945 7.95295 10.6156C7.86963 10.5378 7.76142 10.4276 7.62833 10.285C7.49632 10.1413 7.38162 9.99377 7.28424 9.8425C7.18685 9.69122 7.0938 9.51669 7.00508 9.31897L6.87035 9.02397L6.86223 8.99966L6.85412 8.97535L6.84925 8.95914L6.846 8.94293L6.87035 8.94617L6.8947 8.95103L7.07323 8.97535C7.19227 8.99156 7.37893 8.99695 7.6332 8.99156C7.88749 8.98616 8.06332 8.97535 8.1607 8.95914C8.25809 8.94293 8.3176 8.93212 8.33924 8.92672L8.3717 8.91862L8.41228 8.91051L8.45286 8.90241L8.4561 8.89755L8.46097 8.89431L8.46586 8.89106L8.46909 8.8862L8.43662 8.8781L8.40416 8.86999L8.3717 8.86189L8.33924 8.85378L8.30678 8.84568C8.28514 8.84028 8.24728 8.82947 8.19316 8.81326C8.13906 8.79706 7.99299 8.73762 7.75493 8.63497C7.51689 8.53232 7.32752 8.43237 7.18685 8.33512C7.04583 8.23758 6.91137 8.13092 6.78433 8.01581C6.65772 7.89911 6.51869 7.74891 6.36719 7.56522C6.21571 7.38153 6.08046 7.16811 5.96142 6.92498C5.8424 6.68186 5.75313 6.44954 5.69361 6.22802C5.63433 6.0078 5.59522 5.78266 5.57677 5.55537L5.54754 5.215L5.56377 5.21824L5.58 5.2231L5.59623 5.2312L5.61246 5.23931L5.62869 5.24741L5.64492 5.25552L5.8965 5.36898C6.06423 5.44462 6.27252 5.50945 6.52139 5.56348C6.77027 5.6175 6.91904 5.64723 6.96773 5.65262L7.04077 5.66073H7.18685L7.18362 5.65587L7.17873 5.65262L7.17387 5.64938L7.17062 5.64452L7.16739 5.63966L7.1625 5.63642L7.15763 5.63317L7.15439 5.62831L7.13816 5.62021L7.12193 5.6121L7.1187 5.60724L7.11381 5.604L7.10894 5.60076L7.1057 5.59589L7.08947 5.58779L7.07323 5.57969L7.07 5.57482C7.06676 5.57265 7.02022 5.53808 6.9304 5.47109C6.84167 5.40301 6.74862 5.31495 6.65123 5.20689C6.55385 5.09883 6.45646 4.98537 6.35908 4.86652C6.26151 4.74739 6.17461 4.61993 6.09938 4.48562C6.02365 4.35055 5.94357 4.17873 5.85917 3.97019C5.77585 3.76272 5.71255 3.55363 5.66927 3.34293C5.626 3.13222 5.60165 2.92421 5.59623 2.7189C5.59082 2.51359 5.59623 2.338 5.61246 2.19213C5.62869 2.04625 5.66115 1.88146 5.70984 1.69777C5.75854 1.51408 5.82888 1.31958 5.92084 1.11427L6.05881 0.80631L6.06692 0.781997L6.07504 0.757684L6.07992 0.754443L6.08315 0.74958L6.0864 0.744718L6.09127 0.741476L6.09615 0.744718L6.09938 0.74958L6.10263 0.754443L6.1075 0.757684L6.11238 0.760926L6.11561 0.765789L6.11886 0.770651L6.12373 0.773893L6.13185 0.790101L6.13996 0.80631L6.14485 0.809551L6.14808 0.814414L6.36719 1.05754C6.51327 1.21962 6.6864 1.40062 6.88658 1.60052C7.08677 1.80042 7.19768 1.90415 7.21931 1.91172C7.24096 1.92036 7.268 1.94521 7.30047 1.98628C7.33293 2.02627 7.44114 2.1219 7.62508 2.27317C7.80904 2.42444 8.0498 2.60005 8.34736 2.79994C8.64493 2.99984 8.97495 3.19705 9.33744 3.39155C9.69994 3.58605 10.0895 3.76164 10.5061 3.91832C10.9227 4.07501 11.2148 4.17766 11.3825 4.22628C11.5503 4.27491 11.837 4.33704 12.2428 4.41268C12.6485 4.48833 12.9542 4.53695 13.1598 4.55856C13.3654 4.58016 13.5061 4.59259 13.5818 4.59584L13.6954 4.59908L13.6922 4.57476L13.6873 4.55045L13.6548 4.34785C13.6332 4.21278 13.6224 4.02368 13.6224 3.78055C13.6224 3.53743 13.6413 3.31322 13.6792 3.1079C13.7171 2.90259 13.7739 2.69459 13.8496 2.48388C13.9254 2.27317 13.9995 2.10405 14.072 1.97656C14.1456 1.85013 14.2419 1.70588 14.3609 1.54379C14.4799 1.38171 14.6341 1.21423 14.8235 1.04133C15.0128 0.868436 15.2292 0.714457 15.4727 0.579392C15.7162 0.444327 15.9407 0.341663 16.1463 0.271432C16.3519 0.201201 16.525 0.155266 16.6657 0.133661C16.8063 0.112055 16.8767 0.099623 16.8767 0.0963813Z" fill="#4A3AFF"/>
</g>
<defs>
<filter id="filter0_d_102_137" x="0" y="0" width="27" height="23" filterUnits="userSpaceOnUse" color-interpolation-filters="sRGB">
<feFlood flood-opacity="0" result="BackgroundImageFix"/>
<feColorMatrix in="SourceAlpha" type="matrix" values="0 0 0 0 0 0 0 0 0 0 0 0 0 0 0 0 0 0 127 0" result="hardAlpha"/>
<feOffset dy="4"/>
<feGaussianBlur stdDeviation="2"/>
<feComposite in2="hardAlpha" operator="out"/>
<feColorMatrix type="matrix" values="0 0 0 0 0 0 0 0 0 0 0 0 0 0 0 0 0 0 0.25 0"/>
<feBlend mode="normal" in2="BackgroundImageFix" result="effect1_dropShadow_102_137"/>
<feBlend mode="normal" in="SourceGraphic" in2="effect1_dropShadow_102_137" result="shape"/>
</filter>
</defs>
</svg>
